<?xml version="1.0" encoding="utf-8"?>
<!-- Generator: Adobe Illustrator 13.0.2, SVG Export Plug-In . SVG Version: 6.00 Build 14948)  -->
<svg version="1.2" baseProfile="tiny" id="Ebene_1" xmlns="http://www.w3.org/2000/svg" xmlns:xlink="http://www.w3.org/1999/xlink"
	 x="0px" y="0px" width="512px" height="512px" viewBox="0 0 42 42" xml:space="preserve">
<path d="M10.5,37.673C10.5,37.673,18,42,21,42c4.5,0,10.5-4.327,10.5-4.327c0.052-0.056,0.096-0.117,0.147-0.173H10.353
	C10.404,37.556,10.448,37.617,10.5,37.673 M18,2.675V0.386C13.371,1.348,4.757,4.716,2.225,16.5H0.75C0.337,16.5,0,16.838,0,17.25v3
	C0,20.662,0.337,21,0.75,21h0.854c-0.034,0.488-0.056,0.988-0.072,1.5H0.75C0.337,22.5,0,22.838,0,23.25v3
	C0,26.662,0.337,27,0.75,27h0.956C1.9,28.721,2.276,30.928,3,33.201V39h5.678C3.817,33.669,3.75,24.148,3.75,23.738
	C3.75,8.05,13.06,3.818,18,2.675 M22.5,0h-3v4.482h3V0z M24,4.954v1.028h-6V4.954C13.623,6.079,6,10.009,6,23.738
	c0,0,0.009,7.344,3.201,12.262H18v-1.5h6V36h8.799C35.991,31.082,36,23.738,36,23.738C36,10.009,28.377,6.079,24,4.954
	 M10.125,25.43C9.433,24.638,9,23.615,9,22.482c0-1.135,0.433-2.158,1.125-2.949V25.43z M13.125,21.057
	C12.483,21.227,12,21.785,12,22.482c0,0.694,0.483,1.254,1.125,1.424v3.037c-0.836-0.069-1.607-0.355-2.25-0.82V18.84
	c0.643-0.465,1.414-0.75,2.25-0.821V21.057z M16.125,26.123c-0.643,0.465-1.414,0.751-2.25,0.82v-3.037
	C14.517,23.736,15,23.177,15,22.482c0-0.697-0.483-1.256-1.125-1.426v-3.038c0.836,0.071,1.607,0.356,2.25,0.821V26.123z
	 M16.875,25.43v-5.896C17.567,20.325,18,21.348,18,22.482C18,23.615,17.567,24.638,16.875,25.43 M21,28.5L18,30l3-3l3,3L21,28.5z
	 M25.125,25.43C24.433,24.638,24,23.615,24,22.482c0-1.135,0.433-2.158,1.125-2.949V25.43z M28.125,21.057
	C27.483,21.227,27,21.785,27,22.482c0,0.694,0.483,1.254,1.125,1.424v3.037c-0.836-0.069-1.607-0.355-2.25-0.82V18.84
	c0.643-0.465,1.414-0.75,2.25-0.821V21.057z M31.125,26.123c-0.643,0.465-1.414,0.751-2.25,0.82v-3.037
	C29.517,23.736,30,23.177,30,22.482c0-0.697-0.483-1.256-1.125-1.426v-3.038c0.836,0.071,1.607,0.356,2.25,0.821V26.123z
	 M31.875,25.43v-5.896C32.567,20.325,33,21.348,33,22.482C33,23.615,32.567,24.638,31.875,25.43 M42,20.25v-3
	c0-0.412-0.337-0.75-0.75-0.75h-1.475C37.243,4.716,28.629,1.348,24,0.386v2.289c4.94,1.143,14.25,5.375,14.25,21.063
	c0,0.41-0.066,9.931-4.928,15.262H39v-5.799c0.724-2.273,1.1-4.48,1.294-6.201h0.956c0.413,0,0.75-0.338,0.75-0.75v-3
	c0-0.412-0.337-0.75-0.75-0.75h-0.782c-0.016-0.512-0.038-1.012-0.071-1.5h0.854C41.663,21,42,20.662,42,20.25"/>
</svg>
