<?xml version="1.0" encoding="utf-8"?>
<!-- Generator: Adobe Illustrator 13.0.2, SVG Export Plug-In . SVG Version: 6.00 Build 14948)  -->
<svg version="1.2" baseProfile="tiny" id="Ebene_1" xmlns="http://www.w3.org/2000/svg" xmlns:xlink="http://www.w3.org/1999/xlink"
	 x="0px" y="0px" width="41.922px" height="41.922px" viewBox="0 0 41.922 41.922" xml:space="preserve">
<path fill="#75B31F" d="M41.591,0.386c-0.465-0.493-1.239-0.517-1.732-0.053L18.033,20.857l3.033,3.033L41.591,2.065
	C42.028,1.597,42.036,0.86,41.591,0.386"/>
<polygon points="0,36.639 1.057,37.696 0,38.751 3.17,41.922 4.227,40.866 5.284,41.922 13.736,33.468 8.454,28.185 "/>
<rect x="9.693" y="28.494" transform="matrix(-0.7071 -0.7071 0.7071 -0.7071 0.9711 58.8856)" width="5.977" height="1.495"/>
<rect x="11.805" y="26.38" transform="matrix(-0.707 -0.7072 0.7072 -0.707 6.0699 56.7705)" width="5.978" height="1.495"/>
<polygon points="20.078,25.015 16.907,21.845 15.851,22.902 14.794,21.845 13.737,22.902 19.021,28.185 20.078,27.128 
	19.021,26.072 "/>
</svg>
