<?xml version="1.0" encoding="utf-8"?>
<!-- Generator: Adobe Illustrator 13.0.2, SVG Export Plug-In . SVG Version: 6.00 Build 14948)  -->
<svg version="1.2" baseProfile="tiny" id="Ebene_1" xmlns="http://www.w3.org/2000/svg" xmlns:xlink="http://www.w3.org/1999/xlink"
	 x="0px" y="0px" width="41.922px" height="41.922px" viewBox="0 0 41.922 41.922" xml:space="preserve">
<path fill="#E41F3A" d="M41.59,0.387c-0.465-0.494-1.242-0.518-1.734-0.053L18.074,20.816l4.196,1.798L41.59,2.069
	C42.03,1.6,42.036,0.862,41.59,0.387"/>
<polygon points="18.527,28.689 22.762,24.454 15.351,21.278 13.233,23.396 12.704,22.866 11.645,23.925 12.175,24.454 
	10.057,26.572 15.351,31.865 17.468,29.748 17.998,30.277 19.056,29.217 "/>
<rect x="5.074" y="26.625" transform="matrix(0.7069 0.7073 -0.7073 0.7069 24.2434 5.2197)" width="1.498" height="10.48"/>
<rect x="7.192" y="28.742" transform="matrix(0.7071 0.7071 -0.7071 0.7071 26.3546 4.3383)" width="1.497" height="10.48"/>
<rect x="9.309" y="30.859" transform="matrix(-0.7073 -0.7069 0.7069 -0.7073 -8.3489 68.7421)" width="1.497" height="10.481"/>
<rect x="-0.348" y="38.528" transform="matrix(-0.7072 -0.707 0.707 -0.7072 -23.251 68.9225)" width="5.989" height="1.496"/>
</svg>
